HIERARCHY
ROOT newVegas:Hips
{
	OFFSET 0.000000 96.479958 0.000000
	CHANNELS 6 Xposition Yposition Zposition Xrotation Yrotation Zrotation
	JOINT newVegas:Pelvis
	{
		OFFSET 0.000000 0.000000 0.000000
		CHANNELS 3 Xrotation Yrotation Zrotation
		JOINT newVegas:LeftUpLeg
		{
			OFFSET 18.735201 -5.666702 -4.541200
			CHANNELS 3 Xrotation Yrotation Zrotation
			JOINT newVegas:LeftLeg
			{
				OFFSET -0.021200 -31.938179 0.493100
				CHANNELS 3 Xrotation Yrotation Zrotation
				JOINT newVegas:LeftFoot
				{
					OFFSET 0.021200 -31.938179 -4.336299
					CHANNELS 3 Xrotation Yrotation Zrotation
					JOINT newVegas:LeftToeBase
					{
						OFFSET 0.943001 -26.722000 15.023500
						CHANNELS 3 Xrotation Yrotation Zrotation
						End Site
						{
							OFFSET 0.000000 30.670183 0.000000
						}
					}
				}
				JOINT newVegas:Left_PantLeg
				{
					OFFSET 0.663870 -9.044666 -1.108900
					CHANNELS 3 Xrotation Yrotation Zrotation
					End Site
					{
						OFFSET 1.415995 20.635357 0.000000
					}
				}
			}
		}
		JOINT newVegas:RightUpLeg
		{
			OFFSET -18.735201 -5.666702 -4.541200
			CHANNELS 3 Xrotation Yrotation Zrotation
			JOINT newVegas:RightLeg
			{
				OFFSET 0.018946 -31.938133 0.493100
				CHANNELS 3 Xrotation Yrotation Zrotation
				JOINT newVegas:RightFoot
				{
					OFFSET -0.018946 -31.938126 -4.336299
					CHANNELS 3 Xrotation Yrotation Zrotation
					JOINT newVegas:RightToeBase
					{
						OFFSET -0.943001 -26.722004 15.023500
						CHANNELS 3 Xrotation Yrotation Zrotation
						End Site
						{
							OFFSET 0.000000 30.670187 0.000000
						}
					}
				}
				JOINT newVegas:Right_PantLeg
				{
					OFFSET -0.661674 -9.044716 -1.108900
					CHANNELS 3 Xrotation Yrotation Zrotation
					End Site
					{
						OFFSET -1.415958 20.635269 0.000000
					}
				}
			}
		}
	}
	JOINT newVegas:Spine
	{
		OFFSET 0.000000 10.199997 -0.299500
		CHANNELS 3 Xrotation Yrotation Zrotation
		JOINT newVegas:Spine1
		{
			OFFSET 0.000000 11.900002 -1.516600
			CHANNELS 3 Xrotation Yrotation Zrotation
			JOINT newVegas:Spine2
			{
				OFFSET 0.000000 13.600006 -2.842500
				CHANNELS 3 Xrotation Yrotation Zrotation
				JOINT newVegas:Neck
				{
					OFFSET 0.000000 9.624100 -2.890100
					CHANNELS 3 Xrotation Yrotation Zrotation
					JOINT newVegas:Head
					{
						OFFSET 0.000000 14.068802 -1.351900
						CHANNELS 3 Xrotation Yrotation Zrotation
						JOINT newVegas:Hair_Back
						{
							OFFSET 0.000000 3.231903 -17.524799
							CHANNELS 3 Xrotation Yrotation Zrotation
							End Site
							{
								OFFSET 0.000000 19.849884 0.000000
							}
						}
						JOINT newVegas:Hair_Front
						{
							OFFSET 0.000000 31.260406 4.573800
							CHANNELS 3 Xrotation Yrotation Zrotation
							JOINT newVegas:Hair_Front1
							{
								OFFSET 0.000000 2.284103 11.993300
								CHANNELS 3 Xrotation Yrotation Zrotation
								JOINT newVegas:Hair_Front2
								{
									OFFSET 0.000000 2.284103 11.993300
									CHANNELS 3 Xrotation Yrotation Zrotation
									End Site
									{
										OFFSET 0.000000 12.208862 0.000000
									}
								}
							}
						}
						JOINT newVegas:Jowel
						{
							OFFSET 0.000000 -7.458206 6.864100
							CHANNELS 3 Xrotation Yrotation Zrotation
							End Site
							{
								OFFSET 0.000000 19.849884 0.000000
							}
						}
					}
				}
				JOINT newVegas:LeftShoulder
				{
					OFFSET 15.263000 10.923401 -0.547700
					CHANNELS 3 Xrotation Yrotation Zrotation
					JOINT newVegas:LeftArm
					{
						OFFSET 25.438599 -2.830597 -13.032500
						CHANNELS 3 Xrotation Yrotation Zrotation
						JOINT newVegas:LeftForeArm
						{
							OFFSET 29.960503 0.000000 0.000000
							CHANNELS 3 Xrotation Yrotation Zrotation
							JOINT newVegas:LeftHand
							{
								OFFSET 27.849251 0.000000 0.000000
								CHANNELS 3 Xrotation Yrotation Zrotation
								JOINT newVegas:LeftHandThumb1
								{
									OFFSET 4.487587 -3.305161 6.305391
									CHANNELS 3 Xrotation Yrotation Zrotation
									JOINT newVegas:LeftHandThumb2
									{
										OFFSET 5.480453 -3.164139 3.164143
										CHANNELS 3 Xrotation Yrotation Zrotation
										JOINT newVegas:LeftHandThumb3
										{
											OFFSET 5.159721 -2.978973 2.978967
											CHANNELS 3 Xrotation Yrotation Zrotation
											End Site
											{
												OFFSET 2.494507 5.926697 1.738678
											}
										}
									}
								}
								JOINT newVegas:LeftHandIndex1
								{
									OFFSET 18.578728 -0.527832 5.208049
									CHANNELS 3 Xrotation Yrotation Zrotation
									JOINT newVegas:LeftHandIndex2
									{
										OFFSET 3.192009 0.000000 0.000000
										CHANNELS 3 Xrotation Yrotation Zrotation
										JOINT newVegas:LeftHandIndex3
										{
											OFFSET 3.835129 0.000000 0.000000
											CHANNELS 3 Xrotation Yrotation Zrotation
											End Site
											{
												OFFSET -0.034599 3.816971 0.371180
											}
										}
									}
								}
								JOINT newVegas:LeftHandMiddle1
								{
									OFFSET 18.476105 0.000000 0.000000
									CHANNELS 3 Xrotation Yrotation Zrotation
									JOINT newVegas:LeftHandMiddle2
									{
										OFFSET 3.324875 0.000000 0.000000
										CHANNELS 3 Xrotation Yrotation Zrotation
										JOINT newVegas:LeftHandMiddle3
										{
											OFFSET 4.596550 0.000000 0.000000
											CHANNELS 3 Xrotation Yrotation Zrotation
											End Site
											{
												OFFSET 0.057701 4.578827 0.399218
											}
										}
									}
								}
								JOINT newVegas:LeftHandRing1
								{
									OFFSET 17.732719 0.121887 -4.201567
									CHANNELS 3 Xrotation Yrotation Zrotation
									JOINT newVegas:LeftHandRing2
									{
										OFFSET 2.733170 0.000000 0.000000
										CHANNELS 3 Xrotation Yrotation Zrotation
										JOINT newVegas:LeftHandRing3
										{
											OFFSET 3.178268 0.000000 0.000000
											CHANNELS 3 Xrotation Yrotation Zrotation
											End Site
											{
												OFFSET 0.119102 3.170624 0.185394
											}
										}
									}
								}
								JOINT newVegas:LeftHandPinky1
								{
									OFFSET 15.989624 -0.606689 -7.535461
									CHANNELS 3 Xrotation Yrotation Zrotation
									JOINT newVegas:LeftHandPinky2
									{
										OFFSET 2.538986 0.000000 0.000000
										CHANNELS 3 Xrotation Yrotation Zrotation
										JOINT newVegas:LeftHandPinky3
										{
											OFFSET 2.593102 0.000000 0.000000
											CHANNELS 3 Xrotation Yrotation Zrotation
											End Site
											{
												OFFSET -0.150902 2.584198 0.152708
											}
										}
									}
								}
							}
							JOINT newVegas:Left_Sleeve
							{
								OFFSET 0.267448 -0.649796 0.577675
								CHANNELS 3 Xrotation Yrotation Zrotation
								End Site
								{
									OFFSET 0.000000 15.991241 0.000000
								}
							}
							JOINT newVegas:Left_CapeC
							{
								OFFSET 15.715958 -8.608795 -6.935905
								CHANNELS 3 Xrotation Yrotation Zrotation
								JOINT newVegas:Left_CapeC1
								{
									OFFSET 0.000000 -8.688499 0.000000
									CHANNELS 3 Xrotation Yrotation Zrotation
									End Site
									{
										OFFSET 0.000000 8.688499 0.000000
									}
								}
							}
						}
						JOINT newVegas:Left_CapeB
						{
							OFFSET 26.118385 -8.608795 -7.079235
							CHANNELS 3 Xrotation Yrotation Zrotation
							JOINT newVegas:Left_CapeB1
							{
								OFFSET 0.000000 -8.688499 0.000000
								CHANNELS 3 Xrotation Yrotation Zrotation
								End Site
								{
									OFFSET 0.000000 8.688499 0.000000
								}
							}
						}
						JOINT newVegas:Left_CapeA
						{
							OFFSET 5.115639 -8.608795 -10.395809
							CHANNELS 3 Xrotation Yrotation Zrotation
							JOINT newVegas:Left_CapeA1
							{
								OFFSET 0.000000 -8.688499 0.000000
								CHANNELS 3 Xrotation Yrotation Zrotation
								End Site
								{
									OFFSET 0.000000 8.688499 0.000000
								}
							}
						}
					}
				}
				JOINT newVegas:RightShoulder
				{
					OFFSET -15.263000 10.923401 -0.547700
					CHANNELS 3 Xrotation Yrotation Zrotation
					JOINT newVegas:RightArm
					{
						OFFSET -25.438599 -2.830597 -13.032500
						CHANNELS 3 Xrotation Yrotation Zrotation
						JOINT newVegas:RightForeArm
						{
							OFFSET -29.960503 0.000000 0.000000
							CHANNELS 3 Xrotation Yrotation Zrotation
							JOINT newVegas:RightHand
							{
								OFFSET -27.849251 0.000000 0.000000
								CHANNELS 3 Xrotation Yrotation Zrotation
								JOINT newVegas:RightHandThumb1
								{
									OFFSET -4.487587 -3.305161 6.305391
									CHANNELS 3 Xrotation Yrotation Zrotation
									JOINT newVegas:RightHandThumb2
									{
										OFFSET -5.480453 -3.164139 3.164143
										CHANNELS 3 Xrotation Yrotation Zrotation
										JOINT newVegas:RightHandThumb3
										{
											OFFSET -5.159721 -2.978973 2.978967
											CHANNELS 3 Xrotation Yrotation Zrotation
											End Site
											{
												OFFSET -2.494507 5.926697 1.738678
											}
										}
									}
								}
								JOINT newVegas:RightHandIndex1
								{
									OFFSET -18.578728 -0.527832 5.208049
									CHANNELS 3 Xrotation Yrotation Zrotation
									JOINT newVegas:RightHandIndex2
									{
										OFFSET -3.192009 0.000000 0.000000
										CHANNELS 3 Xrotation Yrotation Zrotation
										JOINT newVegas:RightHandIndex3
										{
											OFFSET -3.835129 0.000000 0.000000
											CHANNELS 3 Xrotation Yrotation Zrotation
											End Site
											{
												OFFSET 0.034599 3.816971 0.371180
											}
										}
									}
								}
								JOINT newVegas:RightHandMiddle1
								{
									OFFSET -18.476105 0.000000 0.000000
									CHANNELS 3 Xrotation Yrotation Zrotation
									JOINT newVegas:RightHandMiddle2
									{
										OFFSET -3.324875 0.000000 0.000000
										CHANNELS 3 Xrotation Yrotation Zrotation
										JOINT newVegas:RightHandMiddle3
										{
											OFFSET -4.596550 0.000000 0.000000
											CHANNELS 3 Xrotation Yrotation Zrotation
											End Site
											{
												OFFSET -0.057701 4.578827 0.399218
											}
										}
									}
								}
								JOINT newVegas:RightHandRing1
								{
									OFFSET -17.732719 0.121887 -4.201567
									CHANNELS 3 Xrotation Yrotation Zrotation
									JOINT newVegas:RightHandRing2
									{
										OFFSET -2.733170 0.000000 0.000000
										CHANNELS 3 Xrotation Yrotation Zrotation
										JOINT newVegas:RightHandRing3
										{
											OFFSET -3.178268 0.000000 0.000000
											CHANNELS 3 Xrotation Yrotation Zrotation
											End Site
											{
												OFFSET -0.119102 3.170624 0.185394
											}
										}
									}
								}
								JOINT newVegas:RightHandPinky1
								{
									OFFSET -15.989624 -0.606689 -7.535461
									CHANNELS 3 Xrotation Yrotation Zrotation
									JOINT newVegas:RightHandPinky2
									{
										OFFSET -2.538986 0.000000 0.000000
										CHANNELS 3 Xrotation Yrotation Zrotation
										JOINT newVegas:RightHandPinky3
										{
											OFFSET -2.593102 0.000000 0.000000
											CHANNELS 3 Xrotation Yrotation Zrotation
											End Site
											{
												OFFSET 0.150902 2.584198 0.152708
											}
										}
									}
								}
							}
							JOINT newVegas:Right_CapeC
							{
								OFFSET -15.715958 -8.608795 -6.935905
								CHANNELS 3 Xrotation Yrotation Zrotation
								JOINT newVegas:Right_CapeC1
								{
									OFFSET 0.000000 -8.688499 0.000000
									CHANNELS 3 Xrotation Yrotation Zrotation
									End Site
									{
										OFFSET 0.000000 8.688499 0.000000
									}
								}
							}
							JOINT newVegas:Right_Sleeve
							{
								OFFSET -0.267448 -0.649994 0.577675
								CHANNELS 3 Xrotation Yrotation Zrotation
								End Site
								{
									OFFSET 0.000000 15.991302 0.000000
								}
							}
						}
						JOINT newVegas:Right_CapeA
						{
							OFFSET -5.115540 -8.608795 -10.395824
							CHANNELS 3 Xrotation Yrotation Zrotation
							JOINT newVegas:Right_CapeA1
							{
								OFFSET 0.000000 -8.688499 0.000000
								CHANNELS 3 Xrotation Yrotation Zrotation
								End Site
								{
									OFFSET 0.000000 8.688499 0.000000
								}
							}
						}
						JOINT newVegas:Right_CapeB
						{
							OFFSET -26.118187 -8.608795 -7.079266
							CHANNELS 3 Xrotation Yrotation Zrotation
							JOINT newVegas:Right_CapeB1
							{
								OFFSET 0.000000 -8.688499 0.000000
								CHANNELS 3 Xrotation Yrotation Zrotation
								End Site
								{
									OFFSET 0.000000 8.688499 0.000000
								}
							}
						}
					}
				}
				JOINT newVegas:Left_Collar
				{
					OFFSET 18.625099 8.655502 8.828100
					CHANNELS 3 Xrotation Yrotation Zrotation
					JOINT newVegas:Left_Collar1
					{
						OFFSET 14.783401 10.540405 -1.259500
						CHANNELS 3 Xrotation Yrotation Zrotation
						End Site
						{
							OFFSET 0.000000 18.199875 0.000000
						}
					}
				}
				JOINT newVegas:Collar_Back
				{
					OFFSET 0.000000 15.630707 -20.132601
					CHANNELS 3 Xrotation Yrotation Zrotation
					End Site
					{
						OFFSET 0.000000 22.523010 0.000000
					}
				}
				JOINT newVegas:Left_Peck
				{
					OFFSET 17.239599 -5.132599 25.482599
					CHANNELS 3 Xrotation Yrotation Zrotation
					End Site
					{
						OFFSET 0.000000 22.523010 0.000000
					}
				}
				JOINT newVegas:Right_Peck
				{
					OFFSET -17.239599 -5.132202 25.482599
					CHANNELS 3 Xrotation Yrotation Zrotation
					End Site
					{
						OFFSET 0.000000 22.523010 0.000000
					}
				}
				JOINT newVegas:Right_Collar
				{
					OFFSET -18.625099 8.655792 8.828100
					CHANNELS 3 Xrotation Yrotation Zrotation
					JOINT newVegas:Right_Collar1
					{
						OFFSET -14.783401 10.539993 -1.259500
						CHANNELS 3 Xrotation Yrotation Zrotation
						End Site
						{
							OFFSET 0.000000 18.199631 0.000000
						}
					}
				}
			}
		}
		JOINT newVegas:Belly
		{
			OFFSET 0.000000 -6.540398 9.014299
			CHANNELS 3 Xrotation Yrotation Zrotation
			End Site
			{
				OFFSET 0.000000 11.566666 0.000000
			}
		}
	}
	JOINT newVegas:ElvisFacialAnim_Joint
	{
		OFFSET 1.000000 -95.330101 -8.825800
		CHANNELS 3 Xrotation Yrotation Zrotation
		End Site
		{
			OFFSET 0.000000 35.315800 0.000000
		}
	}
}
MOTION
Frames: 4
Frame Time: 0.033333
-3.139088 77.428116 1.175648 15.476488 -53.348231 11.977533 0.000000 0.000001 -0.000000 -73.245139 15.000612 48.927633 52.655400 -16.453407 4.653015 5.959488 0.377839 -16.560958 -0.000000 0.000000 0.000000 0.000000 0.000002 0.000001 -30.511275 -17.296570 -44.095285 42.372240 2.711685 -4.944450 -13.500268 -7.757340 39.631455 0.000000 -0.000000 0.000000 0.000002 0.000000 0.000000 7.424835 3.354661 -3.370322 1.209212 1.420652 2.325078 0.209222 1.298889 1.049730 -0.390613 1.953721 -0.338250 -0.390609 1.953729 -0.338242 -0.000000 -0.000001 0.000001 -0.390613 1.953737 -0.338251 -0.390538 1.953689 -0.338245 -0.000000 -0.000001 0.000001 -0.000000 -0.000001 0.000001 -2.401465 -9.917668 -4.102515 -4.645074 -14.977662 -46.844005 -96.738011 -58.197631 -94.834574 0.031208 -0.315785 -3.146586 4.696050 -1.015902 -14.117731 15.868804 12.322602 9.331081 -0.000002 0.000001 -0.000003 -3.446699 -7.456006 -81.619695 -0.618737 -4.405101 -67.189609 0.000000 -0.000001 -0.000001 -5.332885 2.792731 -87.119118 -0.847909 -5.045137 -76.089544 0.000001 0.000000 -0.000000 -4.342981 4.266283 -90.902769 -1.740177 -0.909254 -61.903186 0.000000 -0.000004 -0.000001 -8.751167 8.651263 -86.210962 -0.768080 -0.246804 -73.454853 -0.000001 -0.000005 -0.000004 0.000000 0.000000 0.000001 0.000000 0.000000 0.000001 0.000000 -0.000000 0.000001 -0.000001 -0.000001 -0.000005 -0.000001 -0.000001 -0.000009 -0.000001 -0.000001 -0.000005 -0.000001 -0.000001 -0.000005 -7.387806 -19.317358 2.804078 3.116097 2.282761 51.826734 -16.176997 73.919135 16.680464 -2.717314 27.689855 10.387296 24.939859 -21.182114 30.356014 9.253404 8.380392 -18.163860 0.000003 0.000001 -0.000000 0.075902 -3.241637 61.876740 -0.171629 4.435494 66.221348 0.000000 0.000001 -0.000000 -1.012727 -0.335127 68.857418 -0.581430 4.991713 83.221286 0.000002 -0.000000 0.000001 1.104540 -4.764892 79.937583 -1.121234 1.488222 71.921455 0.000001 0.000001 0.000000 -3.693549 -0.086773 87.489819 -0.295502 0.305542 53.487840 0.000002 -0.000000 -0.000000 -0.000000 0.000000 -0.000000 -0.000000 -0.000002 -0.000001 -0.000000 -0.000000 -0.000000 0.000001 0.000001 -0.000001 0.000001 0.000001 0.000001 0.000001 0.000001 -0.000001 0.000001 0.000001 0.000003 -0.000000 -0.000003 0.000000 -0.000000 -0.000003 0.000000 -0.000000 -0.000003 0.000000 -0.000000 -0.000003 0.000000 -0.000000 -0.000003 0.000000 -0.000000 -0.000003 0.000000 -0.000000 -0.000003 0.000000 -0.000002 0.000002 -0.000001 0.000000 0.000001 -0.000000 
-2.783373 77.616165 0.776231 14.711640 -56.959850 11.662181 0.000001 0.000001 -0.000000 -69.883825 14.446811 50.194213 53.093284 -13.768983 4.649723 4.655807 0.734777 -18.332842 -0.000000 0.000002 -0.000000 0.000001 0.000002 0.000002 -33.529218 -15.750271 -44.618737 43.813731 6.855097 -5.026795 -12.900118 -7.679621 37.443527 -0.000000 -0.000000 0.000000 0.000002 0.000000 -0.000002 7.254246 3.202662 -3.081241 1.460874 0.909070 2.519527 0.488969 0.796878 1.278759 -0.064241 2.009586 -0.424148 -0.064218 2.009574 -0.424146 -0.000000 -0.000001 0.000001 -0.064095 2.009572 -0.424154 -0.064307 2.009593 -0.424147 -0.000002 0.000001 -0.000001 -0.000000 -0.000001 0.000001 -2.405836 -9.899815 -4.147197 -4.171225 -13.307041 -56.228539 -100.952143 -59.070597 -82.222193 13.580865 4.878181 -5.723092 4.754671 -0.770376 -13.730053 15.517006 12.039198 9.204851 0.000001 0.000001 -0.000008 -2.936864 -7.326126 -79.478315 -0.618731 -4.412598 -66.505163 -0.000000 -0.000001 0.000003 -5.143632 2.644805 -84.991377 -0.845004 -5.055219 -75.328606 0.000001 0.000000 -0.000001 -4.379385 4.043594 -89.133108 -1.739038 -0.917145 -61.751433 -0.000000 -0.000004 0.000001 -8.785578 8.300825 -85.133117 -0.765894 -0.252972 -72.952486 -0.000003 -0.000003 -0.000005 0.000000 0.000000 0.000002 0.000000 0.000000 0.000002 0.000000 0.000001 0.000002 0.000000 0.000000 0.000001 0.000001 0.000000 0.000001 0.000000 0.000000 0.000001 0.000000 -0.000000 0.000001 -7.813557 -15.110909 3.568631 -0.646313 1.347450 51.500176 1.338663 70.816378 4.669353 -5.114718 30.591266 11.747917 24.939864 -21.182117 30.356011 9.254553 8.369225 -18.166418 -0.000001 -0.000006 0.000000 0.075902 -3.241636 61.876746 -0.171633 4.435491 66.221348 -0.000002 0.000001 0.000000 -1.012723 -0.335128 68.857418 -0.581430 4.991713 83.221279 0.000002 0.000001 -0.000001 1.104541 -4.764890 79.937583 -1.121234 1.488219 71.921448 0.000000 0.000001 -0.000000 -3.693551 -0.086778 87.489819 -0.295509 0.305545 53.487826 0.000001 -0.000000 -0.000000 -0.000001 0.000000 -0.000000 0.000001 0.000001 -0.000003 -0.000001 0.000001 0.000001 -0.000001 -0.000002 0.000000 -0.000000 -0.000002 0.000002 -0.000001 -0.000002 0.000000 0.000000 -0.000002 0.000004 0.000000 0.000001 0.000000 0.000000 0.000001 0.000000 0.000000 0.000001 0.000000 0.000000 0.000001 0.000000 0.000000 0.000001 0.000000 0.000000 0.000001 0.000000 0.000000 0.000001 0.000000 0.000002 0.000002 -0.000000 0.000001 0.000001 -0.000000 
-2.245580 77.626747 0.708649 13.524692 -57.252879 11.663999 -0.000001 -0.000002 0.000000 -66.804407 13.998132 47.702017 52.495871 -10.895176 4.339650 4.629633 0.746041 -19.129782 0.000000 0.000000 -0.000000 -0.000000 -0.000002 0.000001 -35.067977 -15.314116 -46.293168 44.977069 8.233336 -5.796727 -12.775511 -7.654581 37.391959 0.000000 -0.000000 -0.000000 0.000001 0.000000 -0.000002 6.798244 2.743489 -2.311320 2.112566 -0.364131 3.039781 1.215102 -0.451717 1.893204 0.735128 2.155376 -0.629222 0.735134 2.155408 -0.629221 -0.000000 0.000001 -0.000000 0.735121 2.155390 -0.629224 0.735140 2.155405 -0.629227 -0.000001 0.000004 -0.000001 -0.000000 0.000001 0.000000 -2.409583 -9.838570 -4.238151 -7.525326 -9.043702 -54.690213 -70.315411 -55.809670 -50.268317 11.371875 -3.242830 2.194317 4.916490 -0.096863 -12.650722 14.555294 11.263795 8.840864 0.000002 -0.000003 -0.000001 -1.614155 -6.863221 -73.596866 -0.618199 -4.433409 -64.607115 0.000001 -0.000000 0.000001 -4.606833 2.295879 -79.139517 -0.833588 -5.091730 -73.219990 0.000000 -0.000000 -0.000000 -4.430541 3.442453 -84.271946 -1.744313 -0.948620 -61.316480 0.000001 0.000001 0.000001 -8.823368 7.345100 -82.150920 -0.757945 -0.274629 -71.555268 -0.000002 -0.000003 0.000001 -0.000000 -0.000001 -0.000001 -0.000000 -0.000001 -0.000001 -0.000000 -0.000001 -0.000001 -0.000000 0.000000 -0.000001 -0.000000 -0.000000 -0.000002 -0.000000 0.000000 -0.000001 -0.000000 0.000000 -0.000000 -8.635034 -6.333917 5.229021 -8.052077 -1.393969 51.316171 27.745306 65.944575 -7.986774 -1.482268 25.135262 5.054643 24.939865 -21.182114 30.356011 9.254549 8.369236 -18.166382 -0.000000 -0.000004 0.000004 0.075901 -3.241638 61.876746 -0.171635 4.435492 66.221348 0.000001 0.000001 0.000001 -1.012726 -0.335124 68.857418 -0.581429 4.991713 83.221279 -0.000001 -0.000000 -0.000000 1.104539 -4.764889 79.937583 -1.121237 1.488218 71.921448 -0.000001 0.000001 0.000000 -3.693553 -0.086774 87.489819 -0.295504 0.305545 53.487826 0.000002 0.000002 0.000000 -0.000000 0.000003 0.000001 0.000001 0.000001 0.000002 -0.000000 0.000002 0.000002 -0.000002 0.000000 -0.000000 -0.000001 0.000000 0.000001 -0.000002 0.000000 -0.000000 -0.000001 0.000000 0.000003 0.000001 -0.000003 0.000001 0.000001 -0.000003 0.000001 0.000001 -0.000003 0.000001 0.000001 -0.000003 0.000001 0.000001 -0.000003 0.000001 0.000001 -0.000003 0.000001 0.000001 -0.000003 0.000001 -0.000000 0.000004 -0.000000 -0.000001 -0.000002 0.000000 
-1.846343 77.558281 0.994140 11.776133 -57.357668 11.374951 -0.000000 -0.000001 -0.000000 -62.589456 12.614600 44.195470 52.474229 -7.001430 3.934142 4.037318 0.892063 -20.399758 0.000000 0.000000 0.000000 0.000000 0.000004 -0.000002 -35.916546 -15.019400 -48.355762 45.732727 9.671008 -6.755716 -12.627260 -7.836318 37.842007 0.000000 0.000000 -0.000000 0.000002 -0.000001 -0.000000 6.143668 2.087517 -1.230244 3.016445 -2.012884 3.794605 2.226290 -2.066970 2.788185 1.741837 2.356870 -0.876587 1.741844 2.356897 -0.876590 0.000000 -0.000001 -0.000000 1.741848 2.356892 -0.876592 1.741912 2.356898 -0.876600 -0.000001 -0.000001 -0.000000 0.000000 -0.000001 0.000001 -2.398739 -9.722268 -4.311499 -12.693086 -5.170618 -54.138992 -42.082530 -43.434727 -24.418587 7.463440 -11.614755 9.981930 5.164443 0.914261 -10.999792 13.122784 10.108699 8.247425 0.000002 -0.000001 -0.000006 0.128667 -5.911047 -64.772521 -0.611238 -4.473911 -61.719474 0.000001 0.000001 0.000001 -3.774691 1.930925 -70.331284 -0.813077 -5.146066 -70.015900 -0.000003 0.000000 0.000000 -4.379056 2.582449 -76.968220 -1.751699 -0.997029 -60.627730 -0.000004 -0.000001 -0.000001 -8.729153 5.942889 -77.627777 -0.742617 -0.312542 -69.421585 0.000001 0.000000 -0.000000 0.000001 -0.000002 -0.000003 0.000001 -0.000002 -0.000003 0.000000 -0.000002 -0.000003 -0.000000 -0.000003 0.000003 -0.000000 -0.000003 0.000002 -0.000000 -0.000003 0.000003 -0.000000 -0.000003 0.000004 -8.957056 1.342178 6.775231 -17.536357 -1.304202 52.142084 38.575334 57.053554 -5.300295 5.235088 19.170068 1.485344 24.939862 -21.182119 30.356011 9.254556 8.369219 -18.166404 -0.000003 -0.000002 -0.000001 0.075900 -3.241635 61.876746 -0.171633 4.435497 66.221341 0.000000 -0.000000 -0.000001 -1.012727 -0.335127 68.857418 -0.581430 4.991713 83.221279 0.000003 0.000002 0.000001 1.104539 -4.764890 79.937583 -1.121234 1.488222 71.921448 0.000002 0.000003 -0.000004 -3.693548 -0.086777 87.489819 -0.295509 0.305545 53.487830 0.000001 0.000002 0.000001 -0.000001 0.000004 -0.000000 -0.000001 -0.000003 -0.000001 -0.000001 0.000004 -0.000001 0.000002 0.000002 0.000003 0.000002 0.000003 0.000004 0.000002 0.000002 0.000003 0.000002 0.000003 0.000004 0.000001 -0.000001 0.000001 0.000001 -0.000001 0.000001 0.000001 -0.000001 0.000001 0.000001 -0.000001 0.000001 0.000001 -0.000001 0.000001 0.000001 -0.000001 0.000001 0.000001 -0.000001 0.000001 0.000001 -0.000000 0.000000 -0.000000 -0.000001 -0.000000 
